<svg width="36" height="37" viewBox="0 0 36 37" fill="none" xmlns="http://www.w3.org/2000/svg">
<path d="M34.9137 23.7174L26.7766 32.9563C25.6904 34.1866 24.1204 34.8926 22.4697 34.8932H10.2126L8.0839 37L0.5 29.6829L5.93615 24.3366C8.18798 22.1224 11.52 21.376 14.5157 22.4148L15.7136 22.8301H23.0533C23.6792 22.8298 24.2785 23.0807 24.7142 23.5254C25.1499 23.9702 25.3848 24.5707 25.3651 25.1899C25.2937 26.4474 24.2342 27.4261 22.9618 27.4099H18.548C18.2131 27.3883 17.8938 27.5529 17.7197 27.8369C17.5456 28.121 17.5456 28.4772 17.7197 28.7613C17.8938 29.0453 18.2131 29.2099 18.548 29.1883H22.9618C25.1998 29.191 27.0462 27.455 27.1581 25.2427C27.1581 25.2427 27.1581 25.205 27.1581 25.1861L31.2362 20.6554C32.0967 19.6672 33.5898 19.5226 34.6276 20.3269C35.1263 20.7348 35.4378 21.3244 35.4917 21.9625C35.5455 22.6006 35.3371 23.2333 34.9137 23.7174ZM31.7359 4.0087V4.4882C31.7359 5.01301 31.7359 5.55292 31.7588 6.13059C31.8084 8.67158 31.8618 11.6505 30.9958 14.4369C29.7945 18.2092 26.26 20.7745 22.2637 20.7745C18.2674 20.7745 14.7328 18.2092 13.5315 14.4369C12.6579 11.6543 12.7113 8.67913 12.7685 6.13059C12.7685 5.5567 12.7914 4.99791 12.7914 4.4882V4.0087C12.7914 3.61459 13.1142 3.2951 13.5124 3.2951H13.9969C17.1403 3.2951 19.4331 2.44182 21.4358 0.52758L21.7754 0.202877C22.0554 -0.0676258 22.5024 -0.0676258 22.7825 0.202877L23.122 0.52758C25.0943 2.44182 27.387 3.2951 30.538 3.2951H31.0225C31.4178 3.29924 31.7359 3.61752 31.7359 4.0087ZM26.5782 8.40728L25.6322 7.46338C25.3852 7.22052 24.9865 7.22052 24.7395 7.46338L21.1841 10.9823L19.7955 9.61548C19.546 9.37863 19.1522 9.37863 18.9028 9.61548L17.9491 10.5707C17.7037 10.8151 17.7037 11.2098 17.9491 11.4542L20.7301 14.2066C20.9771 14.4495 21.3758 14.4495 21.6228 14.2066L26.5821 9.29833C26.7018 9.1801 26.7687 9.01939 26.768 8.85202C26.7673 8.68464 26.699 8.5245 26.5782 8.40728Z" fill="#1EA01E"/>
</svg>
