<svg width="25" height="24" viewBox="0 0 25 24" fill="none" xmlns="http://www.w3.org/2000/svg">
<path d="M4.5 3C3 3 1.5 4.5 1.5 6V18C1.5 19.5 3 21 4.5 21H20.5C22 21 23.5 19.5 23.5 18V6C23.5 4.5 22 3 20.5 3H4.5ZM21.5 8.35341L12.5 12.4034L3.5 8.35341V6C3.5 5.44772 3.94772 5 4.5 5H20.5C21.0523 5 21.5 5.44772 21.5 6V8.35341ZM21.5 10.5466V18C21.5 18.5523 21.0523 19 20.5 19H4.5C3.94772 19 3.5 18.5523 3.5 18V10.5466L11.6793 14.2273C12.2012 14.4621 12.7988 14.4621 13.3207 14.2273L21.5 10.5466Z" fill="black" fill-opacity="0.2"/>
</svg>
