<svg width="25" height="24" viewBox="0 0 25 24" fill="none" xmlns="http://www.w3.org/2000/svg">
<path d="M15.5 7C15.5 5.34314 14.1569 4 12.5 4C10.8431 4 9.5 5.34314 9.5 7C9.5 8.65686 10.8431 10 12.5 10C14.1569 10 15.5 8.65686 15.5 7ZM17.5 7C17.5 9.76143 15.2614 12 12.5 12C9.73857 12 7.5 9.76143 7.5 7C7.5 4.23858 9.73857 2 12.5 2C15.2614 2 17.5 4.23858 17.5 7ZM21.5 18.9283C21.622 20.6085 20.2389 22 18.5507 22L6.45681 22C4.76854 22 3.38548 20.6085 3.5075 18.9283C3.78678 15.0828 7.76692 13 12.5001 13C17.2239 13 21.2183 15.0499 21.5 18.9283ZM19.505 19.0732C19.2951 16.1819 16.1055 15 12.4998 15C8.87245 15 5.70898 16.2238 5.50204 19.0732C5.46645 19.5633 5.9005 20 6.45661 20L18.5505 20C19.1066 20 19.5406 19.5633 19.505 19.0732Z" fill="black" fill-opacity="0.2"/>
</svg>
